<svg xmlns="http://www.w3.org/2000/svg" viewBox="0 0 16 16"><path d="M15.806 7.522l-.008-.005h-.001L9.493 3.924a.868.868 0 0 0-.473-.14h-.04a.868.868 0 0 0-.473.14L2.203 7.516l-.001.001-.008.005a.387.387 0 0 0-.009.665v.003L9 13l6.815-4.81v-.003a.387.387 0 0 0-.009-.665z" fill="#0a2767"/><path d="M14 0H4a1 1 0 0 0-1 1l6 2 6-2a1 1 0 0 0-1-1z" fill="#0364b8"/><path fill="#28a8ea" d="M9 1H3v6l5.992 6.008h6V6.992L9 1z"/><path fill="#50d9ff" d="M9 1h6v6H9z"/><path fill="#0078d4" d="M8.992 13.008L3 13V7h6l-.008 6.008z"/><path d="M9 13L2.218 8.174l.504-.885 6.296 3.577c.061-.032 6.304-3.582 6.304-3.582l.49.908z" fill="#0a2767" opacity=".5"/><path d="M15.815 8.187v.003L9.5 11.787a.868.868 0 0 1-.472.139H9v-.001h-.03a.87.87 0 0 1-.242-.034L11 15l4.643.83a.874.874 0 0 0 .357-.705V7.857a.387.387 0 0 1-.185.33z" fill="#1490df"/><path d="M10.04 11.48l-.539.307a.869.869 0 0 1-.472.139H9v-.001h-.03a.87.87 0 0 1-.242-.034L11 15l4.643.83a.874.874 0 0 0 .357-.705v-.274z" opacity=".1"/><path d="M2.185 8.19v-.003A.387.387 0 0 1 2 7.857v7.27a.875.875 0 0 0 .875.873h12.25a.874.874 0 0 0 .506-.161l.012-.008.024-.02z" fill="#28a8ea"/><path d="M9 14a2 2 0 0 0 2-2V5.002A1.004 1.004 0 0 0 9.999 4H3l.001 3v.074l-.786.448v.007a.382.382 0 0 0-.193.328v.001-.001L2 9v5z" opacity=".5"/><rect y="3" width="10" height="10" rx="1" fill="#0078d4"/><path d="M2.385 6.473a2.568 2.568 0 0 1 1.042-1.09 3.29 3.29 0 0 1 1.656-.394 3.059 3.059 0 0 1 1.532.373A2.546 2.546 0 0 1 7.63 6.404a3.217 3.217 0 0 1 .355 1.532 3.39 3.39 0 0 1-.366 1.603 2.607 2.607 0 0 1-1.044 1.078 3.181 3.181 0 0 1-1.59.383 3.133 3.133 0 0 1-1.567-.377 2.588 2.588 0 0 1-1.027-1.044 3.139 3.139 0 0 1-.36-1.514 3.477 3.477 0 0 1 .354-1.592zm1.11 2.559a1.649 1.649 0 0 0 .587.718 1.592 1.592 0 0 0 .916.26 1.673 1.673 0 0 0 .977-.269 1.576 1.576 0 0 0 .57-.719 2.65 2.65 0 0 0 .182-1.001 2.896 2.896 0 0 0-.172-1.013 1.607 1.607 0 0 0-.55-.746 1.574 1.574 0 0 0-.969-.284 1.646 1.646 0 0 0-.937.264 1.666 1.666 0 0 0-.6.723 2.514 2.514 0 0 0-.205 1.036 2.53 2.53 0 0 0 .201 1.031z" fill="#fff"/></svg>